<?xml version="1.0"?>
<svg xmlns="http://www.w3.org/2000/svg" xmlns:xlink="http://www.w3.org/1999/xlink" xmlns:svgjs="http://svgjs.com/svgjs" version="1.1" width="512" height="512" x="0" y="0" viewBox="0 0 512 512" style="enable-background:new 0 0 512 512" xml:space="preserve" class=""><g><linearGradient xmlns="http://www.w3.org/2000/svg" id="SVGID_1_" gradientUnits="userSpaceOnUse" x1="256" x2="256" y1="512" y2="0"><stop stop-opacity="1" stop-color="#195490" offset="0"/><stop stop-opacity="1" stop-color="#cfabef" offset="1"/></linearGradient><g xmlns="http://www.w3.org/2000/svg"><g><g><path d="m166 151c-8.284 0-15 6.716-15 15v120c0 8.284 6.716 15 15 15s15-6.716 15-15v-120c0-8.284-6.716-15-15-15zm60 0c-8.284 0-15 6.716-15 15v120c0 8.284 6.716 15 15 15s15-6.716 15-15v-120c0-8.284-6.716-15-15-15zm60 180c-8.284 0-15 6.716-15 15s6.716 15 15 15 15-6.716 15-15-6.716-15-15-15zm-60 0c-8.284 0-15 6.716-15 15s6.716 15 15 15 15-6.716 15-15-6.716-15-15-15zm-211-271c8.284 0 15-6.716 15-15v-15h45c8.284 0 15-6.716 15-15s-6.716-15-15-15h-60c-8.284 0-15 6.716-15 15v30c0 8.284 6.716 15 15 15zm151 271c-8.284 0-15 6.716-15 15s6.716 15 15 15 15-6.716 15-15-6.716-15-15-15zm-60-180c-8.284 0-15 6.716-15 15v180c0 8.284 6.716 15 15 15s15-6.716 15-15v-180c0-8.284-6.716-15-15-15zm-75-45v300c0 8.284 6.716 15 15 15h420c8.284 0 15-6.716 15-15v-300c0-8.284-6.716-15-15-15h-420c-8.284 0-15 6.716-15 15zm30 15h390v270h-390zm14 361h-45v-15c0-8.284-6.716-15-15-15s-15 6.716-15 15v30c0 8.284 6.716 15 15 15h60c8.284 0 15-6.716 15-15s-6.716-15-15-15zm422-30c-8.284 0-15 6.716-15 15v15h-45c-8.284 0-15 6.716-15 15s6.716 15 15 15h60c8.284 0 15-6.716 15-15v-30c0-8.284-6.716-15-15-15zm0-452h-60c-8.284 0-15 6.716-15 15s6.716 15 15 15h45v15c0 8.284 6.716 15 15 15s15-6.716 15-15v-30c0-8.284-6.716-15-15-15zm-211 151c-8.284 0-15 6.716-15 15v120c0 8.284 6.716 15 15 15s15-6.716 15-15v-120c0-8.284-6.716-15-15-15zm60 180c-8.284 0-15 6.716-15 15s6.716 15 15 15 15-6.716 15-15-6.716-15-15-15zm0-180c-8.284 0-15 6.716-15 15v120c0 8.284 6.716 15 15 15s15-6.716 15-15v-120c0-8.284-6.716-15-15-15zm60 0c-8.284 0-15 6.716-15 15v180c0 8.284 6.716 15 15 15s15-6.716 15-15v-180c0-8.284-6.716-15-15-15z" fill="url(#SVGID_1_)" data-original="url(#SVGID_1_)" style=""/></g></g></g></g></svg>
